<?xml version="1.0" standalone="no"?>
<!DOCTYPE svg PUBLIC "-//W3C//DTD SVG 20010904//EN"
 "http://www.w3.org/TR/2001/REC-SVG-20010904/DTD/svg10.dtd">
<svg version="1.0" xmlns="http://www.w3.org/2000/svg"
 width="115.000000pt" height="43.000000pt" viewBox="0 0 115.000000 43.000000"
 preserveAspectRatio="xMidYMid meet">

<g transform="translate(0.000000,43.000000) scale(0.100000,-0.100000)"
fill="#000000" stroke="none">
<path d="M120 380 c0 -47 2 -50 34 -64 44 -18 66 -52 66 -101 0 -49 -22 -83
-66 -101 -32 -14 -34 -17 -34 -64 0 -28 1 -50 3 -50 2 0 26 7 53 15 191 56
191 344 0 400 -27 8 -51 15 -53 15 -2 0 -3 -22 -3 -50z"/>
<path d="M420 225 c0 -67 3 -85 14 -85 9 0 16 12 18 33 3 27 7 32 33 35 40 5
55 19 55 53 0 34 -23 49 -79 49 l-41 0 0 -85z m88 33 c-2 -17 -11 -24 -30 -26
-24 -3 -28 0 -28 22 0 22 4 26 31 26 26 0 30 -3 27 -22z"/>
<path d="M570 225 c0 -69 3 -85 15 -85 11 0 15 11 15 36 0 44 19 42 39 -4 9
-19 22 -32 33 -32 17 0 17 2 1 34 -15 32 -15 36 1 51 38 38 2 85 -66 85 l-38
0 0 -85z m85 30 c0 -14 -8 -21 -27 -23 -24 -3 -28 0 -28 23 0 23 4 26 28 23
19 -2 27 -9 27 -23z"/>
<path d="M720 225 c0 -69 3 -85 15 -85 12 0 15 16 15 85 0 69 -3 85 -15 85
-12 0 -15 -16 -15 -85z"/>
<path d="M780 225 c0 -69 3 -85 15 -85 12 0 15 13 15 58 l1 57 25 -47 c13 -27
29 -48 34 -48 5 0 21 21 34 48 l25 47 1 -57 c0 -45 3 -58 15 -58 12 0 15 16
15 85 0 76 -2 85 -18 85 -12 0 -26 -17 -42 -50 -13 -27 -26 -50 -30 -50 -4 0
-17 23 -30 50 -16 33 -30 50 -42 50 -16 0 -18 -9 -18 -85z"/>
<path d="M1037 293 c-2 -10 -16 -48 -30 -85 -24 -63 -25 -68 -8 -68 10 0 21 9
24 20 7 28 60 27 79 -1 8 -12 19 -20 25 -18 7 3 0 34 -20 87 -22 60 -34 82
-47 82 -10 0 -20 -8 -23 -17z m37 -55 c9 -35 8 -38 -14 -38 -11 0 -20 3 -20 8
0 19 13 52 20 52 4 0 10 -10 14 -22z"/>
<path d="M82 274 c-33 -23 -43 -67 -23 -98 10 -14 21 -23 24 -19 4 3 7 2 7 -4
0 -15 58 -6 76 12 37 37 19 94 -34 113 -23 8 -35 7 -50 -4z"/>
</g>
</svg>
